# MagicaVoxel @ Ephtracy

# group
o 

# material
mtllib CornerWall.mtl
usemtl palette

# normals
vn -1 0 0
vn 1 0 0
vn 0 0 1
vn 0 0 -1
vn 0 -1 0
vn 0 1 0

# texcoords
vt 0.982422 0.5
vt 0.986328 0.5

# verts
v -5 0 2.4
v -5 0 -2.5
v -5 2.4 2.4
v -5 2.4 2.1
v -5 2.4 -2.2
v -5 2.4 -2.5
v -5 9.1 2.1
v -5 9.1 1.8
v -5 9.1 -1.9
v -5 9.1 -2.2
v -5 9.2 1.8
v -5 9.2 1.5
v -5 9.2 -1.6
v -5 9.2 -1.9
v -5 9.3 1.5
v -5 9.3 1.2
v -5 9.3 -1.3
v -5 9.3 -1.6
v -5 9.4 1.2
v -5 9.4 0.8
v -5 9.4 -0.9
v -5 9.4 -1.3
v -5 9.5 0.8
v -5 9.5 0.3
v -5 9.5 -0.4
v -5 9.5 -0.9
v -5 9.6 0.3
v -5 9.6 -0.4
v -2.4 0 -2.5
v -2.4 0 -5.1
v -2.4 2.4 -2.5
v -2.4 2.4 -5.1
v -2.1 2.4 -2.2
v -2.1 2.4 -5.1
v -2.1 9.1 -2.2
v -2.1 9.1 -5.1
v -1.8 9.1 -1.9
v -1.8 9.1 -5.1
v -1.8 9.2 -1.9
v -1.8 9.2 -5.1
v -1.5 9.2 -1.6
v -1.5 9.2 -5.1
v -1.5 9.3 -1.6
v -1.5 9.3 -5.1
v -1.2 9.3 -1.3
v -1.2 9.3 -5.1
v -1.2 9.4 -1.3
v -1.2 9.4 -5.1
v -0.8 9.4 -0.9
v -0.8 9.4 -5.1
v -0.8 9.5 -0.9
v -0.8 9.5 -5.1
v -0.3 9.5 -0.4
v -0.3 9.5 -5.1
v -0.3 9.6 -0.4
v -0.3 9.6 -5.1
v 0.4 9.5 0.3
v 0.4 9.5 -5.1
v 0.4 9.6 0.3
v 0.4 9.6 -5.1
v 0.9 9.4 0.8
v 0.9 9.4 -5.1
v 0.9 9.5 0.8
v 0.9 9.5 -5.1
v 1.3 9.3 1.2
v 1.3 9.3 -5.1
v 1.3 9.4 1.2
v 1.3 9.4 -5.1
v 1.6 9.2 1.5
v 1.6 9.2 -5.1
v 1.6 9.3 1.5
v 1.6 9.3 -5.1
v 1.9 9.1 1.8
v 1.9 9.1 -5.1
v 1.9 9.2 1.8
v 1.9 9.2 -5.1
v 2.2 2.4 2.1
v 2.2 2.4 -5.1
v 2.2 9.1 2.1
v 2.2 9.1 -5.1
v 2.5 0 2.4
v 2.5 0 -5.1
v 2.5 2.4 2.4
v 2.5 2.4 -5.1
v -5 0 2.4
v -5 2.4 2.4
v 2.5 0 2.4
v 2.5 2.4 2.4
v -5 2.4 2.1
v -5 9.1 2.1
v 2.2 2.4 2.1
v 2.2 9.1 2.1
v -5 9.1 1.8
v -5 9.2 1.8
v 1.9 9.1 1.8
v 1.9 9.2 1.8
v -5 9.2 1.5
v -5 9.3 1.5
v 1.6 9.2 1.5
v 1.6 9.3 1.5
v -5 9.3 1.2
v -5 9.4 1.2
v 1.3 9.3 1.2
v 1.3 9.4 1.2
v -5 9.4 0.8
v -5 9.5 0.8
v 0.9 9.4 0.8
v 0.9 9.5 0.8
v -5 9.5 0.3
v -5 9.6 0.3
v 0.4 9.5 0.3
v 0.4 9.6 0.3
v -5 9.5 -0.4
v -5 9.6 -0.4
v -0.3 9.5 -0.4
v -0.3 9.6 -0.4
v -5 9.4 -0.9
v -5 9.5 -0.9
v -0.8 9.4 -0.9
v -0.8 9.5 -0.9
v -5 9.3 -1.3
v -5 9.4 -1.3
v -1.2 9.3 -1.3
v -1.2 9.4 -1.3
v -5 9.2 -1.6
v -5 9.3 -1.6
v -1.5 9.2 -1.6
v -1.5 9.3 -1.6
v -5 9.1 -1.9
v -5 9.2 -1.9
v -1.8 9.1 -1.9
v -1.8 9.2 -1.9
v -5 2.4 -2.2
v -5 9.1 -2.2
v -2.1 2.4 -2.2
v -2.1 9.1 -2.2
v -5 0 -2.5
v -5 2.4 -2.5
v -2.4 0 -2.5
v -2.4 2.4 -2.5
v -2.4 0 -5.1
v -2.4 2.4 -5.1
v -2.1 2.4 -5.1
v -2.1 9.1 -5.1
v -1.8 9.1 -5.1
v -1.8 9.2 -5.1
v -1.5 9.2 -5.1
v -1.5 9.3 -5.1
v -1.2 9.3 -5.1
v -1.2 9.4 -5.1
v -0.8 9.4 -5.1
v -0.8 9.5 -5.1
v -0.3 9.5 -5.1
v -0.3 9.6 -5.1
v 0.4 9.5 -5.1
v 0.4 9.6 -5.1
v 0.9 9.4 -5.1
v 0.9 9.5 -5.1
v 1.3 9.3 -5.1
v 1.3 9.4 -5.1
v 1.6 9.2 -5.1
v 1.6 9.3 -5.1
v 1.9 9.1 -5.1
v 1.9 9.2 -5.1
v 2.2 2.4 -5.1
v 2.2 9.1 -5.1
v 2.5 0 -5.1
v 2.5 2.4 -5.1
v -5 0 2.4
v 2.5 0 2.4
v -5 0 -2.5
v -2.4 0 -2.5
v -2.4 0 -5.1
v 2.5 0 -5.1
v -5 2.4 2.4
v 2.5 2.4 2.4
v -5 2.4 2.1
v 2.2 2.4 2.1
v -5 2.4 -2.2
v -2.1 2.4 -2.2
v -5 2.4 -2.5
v -2.4 2.4 -2.5
v -2.4 2.4 -5.1
v -2.1 2.4 -5.1
v 2.2 2.4 -5.1
v 2.5 2.4 -5.1
v -5 9.1 2.1
v 2.2 9.1 2.1
v -5 9.1 1.8
v 1.9 9.1 1.8
v -5 9.1 -1.9
v -1.8 9.1 -1.9
v -5 9.1 -2.2
v -2.1 9.1 -2.2
v -2.1 9.1 -5.1
v -1.8 9.1 -5.1
v 1.9 9.1 -5.1
v 2.2 9.1 -5.1
v -5 9.2 1.8
v 1.9 9.2 1.8
v -5 9.2 1.5
v 1.6 9.2 1.5
v -5 9.2 -1.6
v -1.5 9.2 -1.6
v -5 9.2 -1.9
v -1.8 9.2 -1.9
v -1.8 9.2 -5.1
v -1.5 9.2 -5.1
v 1.6 9.2 -5.1
v 1.9 9.2 -5.1
v -5 9.3 1.5
v 1.6 9.3 1.5
v -5 9.3 1.2
v 1.3 9.3 1.2
v -5 9.3 -1.3
v -1.2 9.3 -1.3
v -5 9.3 -1.6
v -1.5 9.3 -1.6
v -1.5 9.3 -5.1
v -1.2 9.3 -5.1
v 1.3 9.3 -5.1
v 1.6 9.3 -5.1
v -5 9.4 1.2
v 1.3 9.4 1.2
v -5 9.4 0.8
v 0.9 9.4 0.8
v -5 9.4 -0.9
v -0.8 9.4 -0.9
v -5 9.4 -1.3
v -1.2 9.4 -1.3
v -1.2 9.4 -5.1
v -0.8 9.4 -5.1
v 0.9 9.4 -5.1
v 1.3 9.4 -5.1
v -5 9.5 0.8
v 0.9 9.5 0.8
v -5 9.5 0.3
v 0.4 9.5 0.3
v -5 9.5 -0.4
v -0.3 9.5 -0.4
v -5 9.5 -0.9
v -0.8 9.5 -0.9
v -0.8 9.5 -5.1
v -0.3 9.5 -5.1
v 0.4 9.5 -5.1
v 0.9 9.5 -5.1
v -5 9.6 0.3
v 0.4 9.6 0.3
v -5 9.6 -0.4
v -0.3 9.6 -0.4
v -0.3 9.6 -5.1
v 0.4 9.6 -5.1

# faces
f 3/2/1 2/2/1 1/2/1
f 4/2/1 2/2/1 3/2/1
f 5/2/1 2/2/1 4/2/1
f 6/2/1 2/2/1 5/2/1
f 7/1/1 5/1/1 4/1/1
f 8/1/1 5/1/1 7/1/1
f 9/1/1 5/1/1 8/1/1
f 10/1/1 5/1/1 9/1/1
f 11/1/1 9/1/1 8/1/1
f 12/1/1 9/1/1 11/1/1
f 13/1/1 9/1/1 12/1/1
f 14/1/1 9/1/1 13/1/1
f 15/1/1 13/1/1 12/1/1
f 16/1/1 13/1/1 15/1/1
f 17/1/1 13/1/1 16/1/1
f 18/1/1 13/1/1 17/1/1
f 19/1/1 17/1/1 16/1/1
f 20/1/1 17/1/1 19/1/1
f 21/1/1 17/1/1 20/1/1
f 22/1/1 17/1/1 21/1/1
f 23/1/1 21/1/1 20/1/1
f 24/1/1 21/1/1 23/1/1
f 25/1/1 21/1/1 24/1/1
f 26/1/1 21/1/1 25/1/1
f 27/1/1 25/1/1 24/1/1
f 28/1/1 25/1/1 27/1/1
f 31/2/1 30/2/1 29/2/1
f 32/2/1 30/2/1 31/2/1
f 35/1/1 34/1/1 33/1/1
f 36/1/1 34/1/1 35/1/1
f 39/1/1 38/1/1 37/1/1
f 40/1/1 38/1/1 39/1/1
f 43/1/1 42/1/1 41/1/1
f 44/1/1 42/1/1 43/1/1
f 47/1/1 46/1/1 45/1/1
f 48/1/1 46/1/1 47/1/1
f 51/1/1 50/1/1 49/1/1
f 52/1/1 50/1/1 51/1/1
f 55/1/1 54/1/1 53/1/1
f 56/1/1 54/1/1 55/1/1
f 57/1/2 58/1/2 59/1/2
f 59/1/2 58/1/2 60/1/2
f 61/1/2 62/1/2 63/1/2
f 63/1/2 62/1/2 64/1/2
f 65/1/2 66/1/2 67/1/2
f 67/1/2 66/1/2 68/1/2
f 69/1/2 70/1/2 71/1/2
f 71/1/2 70/1/2 72/1/2
f 73/1/2 74/1/2 75/1/2
f 75/1/2 74/1/2 76/1/2
f 77/1/2 78/1/2 79/1/2
f 79/1/2 78/1/2 80/1/2
f 81/2/2 82/2/2 83/2/2
f 83/2/2 82/2/2 84/2/2
f 87/2/3 86/2/3 85/2/3
f 88/2/3 86/2/3 87/2/3
f 91/1/3 90/1/3 89/1/3
f 92/1/3 90/1/3 91/1/3
f 95/1/3 94/1/3 93/1/3
f 96/1/3 94/1/3 95/1/3
f 99/1/3 98/1/3 97/1/3
f 100/1/3 98/1/3 99/1/3
f 103/1/3 102/1/3 101/1/3
f 104/1/3 102/1/3 103/1/3
f 107/1/3 106/1/3 105/1/3
f 108/1/3 106/1/3 107/1/3
f 111/1/3 110/1/3 109/1/3
f 112/1/3 110/1/3 111/1/3
f 113/1/4 114/1/4 115/1/4
f 115/1/4 114/1/4 116/1/4
f 117/1/4 118/1/4 119/1/4
f 119/1/4 118/1/4 120/1/4
f 121/1/4 122/1/4 123/1/4
f 123/1/4 122/1/4 124/1/4
f 125/1/4 126/1/4 127/1/4
f 127/1/4 126/1/4 128/1/4
f 129/1/4 130/1/4 131/1/4
f 131/1/4 130/1/4 132/1/4
f 133/1/4 134/1/4 135/1/4
f 135/1/4 134/1/4 136/1/4
f 137/2/4 138/2/4 139/2/4
f 139/2/4 138/2/4 140/2/4
f 141/2/4 142/2/4 143/2/4
f 143/1/4 144/1/4 145/1/4
f 145/1/4 146/1/4 147/1/4
f 147/1/4 148/1/4 149/1/4
f 149/1/4 150/1/4 151/1/4
f 151/1/4 152/1/4 153/1/4
f 151/1/4 153/1/4 155/1/4
f 153/1/4 154/1/4 155/1/4
f 155/1/4 154/1/4 156/1/4
f 149/1/4 151/1/4 157/1/4
f 151/1/4 155/1/4 157/1/4
f 157/1/4 155/1/4 158/1/4
f 147/1/4 149/1/4 159/1/4
f 149/1/4 157/1/4 159/1/4
f 159/1/4 157/1/4 160/1/4
f 145/1/4 147/1/4 161/1/4
f 147/1/4 159/1/4 161/1/4
f 161/1/4 159/1/4 162/1/4
f 143/1/4 145/1/4 163/1/4
f 145/1/4 161/1/4 163/1/4
f 163/1/4 161/1/4 164/1/4
f 141/2/4 143/2/4 165/2/4
f 143/1/4 163/1/4 165/1/4
f 165/1/4 163/1/4 166/1/4
f 141/2/4 165/2/4 167/2/4
f 167/2/4 165/2/4 168/2/4
f 171/2/5 170/2/5 169/2/5
f 172/2/5 170/2/5 171/2/5
f 173/2/5 170/2/5 172/2/5
f 174/2/5 170/2/5 173/2/5
f 175/2/6 176/2/6 177/2/6
f 177/2/6 176/2/6 178/2/6
f 179/2/6 180/2/6 181/2/6
f 181/2/6 180/2/6 182/2/6
f 182/2/6 180/2/6 183/2/6
f 183/2/6 180/2/6 184/2/6
f 178/2/6 176/2/6 185/2/6
f 185/2/6 176/2/6 186/2/6
f 187/1/6 188/1/6 189/1/6
f 189/1/6 188/1/6 190/1/6
f 191/1/6 192/1/6 193/1/6
f 193/1/6 192/1/6 194/1/6
f 194/1/6 192/1/6 195/1/6
f 195/1/6 192/1/6 196/1/6
f 190/1/6 188/1/6 197/1/6
f 197/1/6 188/1/6 198/1/6
f 199/1/6 200/1/6 201/1/6
f 201/1/6 200/1/6 202/1/6
f 203/1/6 204/1/6 205/1/6
f 205/1/6 204/1/6 206/1/6
f 206/1/6 204/1/6 207/1/6
f 207/1/6 204/1/6 208/1/6
f 202/1/6 200/1/6 209/1/6
f 209/1/6 200/1/6 210/1/6
f 211/1/6 212/1/6 213/1/6
f 213/1/6 212/1/6 214/1/6
f 215/1/6 216/1/6 217/1/6
f 217/1/6 216/1/6 218/1/6
f 218/1/6 216/1/6 219/1/6
f 219/1/6 216/1/6 220/1/6
f 214/1/6 212/1/6 221/1/6
f 221/1/6 212/1/6 222/1/6
f 223/1/6 224/1/6 225/1/6
f 225/1/6 224/1/6 226/1/6
f 227/1/6 228/1/6 229/1/6
f 229/1/6 228/1/6 230/1/6
f 230/1/6 228/1/6 231/1/6
f 231/1/6 228/1/6 232/1/6
f 226/1/6 224/1/6 233/1/6
f 233/1/6 224/1/6 234/1/6
f 235/1/6 236/1/6 237/1/6
f 237/1/6 236/1/6 238/1/6
f 239/1/6 240/1/6 241/1/6
f 241/1/6 240/1/6 242/1/6
f 242/1/6 240/1/6 243/1/6
f 243/1/6 240/1/6 244/1/6
f 238/1/6 236/1/6 245/1/6
f 245/1/6 236/1/6 246/1/6
f 247/1/6 248/1/6 249/1/6
f 249/1/6 248/1/6 250/1/6
f 250/1/6 248/1/6 251/1/6
f 251/1/6 248/1/6 252/1/6
