# MagicaVoxel @ Ephtracy

# group
o 

# material
mtllib SingleWall.mtl
usemtl palette

# normals
vn -1 0 0
vn 1 0 0
vn 0 0 1
vn 0 0 -1
vn 0 -1 0
vn 0 1 0

# texcoords
vt 0.978516 0.5
vt 0.982422 0.5
vt 0.986328 0.5

# verts
v -2.4 0 2.4
v -2.4 0 -2.5
v -2.4 2.4 2.4
v -2.4 2.4 -2.5
v -2.1 2.4 2.1
v -2.1 2.4 -2.2
v -2.1 9.1 2.1
v -2.1 9.1 -2.2
v -1.8 9.1 1.8
v -1.8 9.1 -1.9
v -1.8 9.2 1.8
v -1.8 9.2 -1.9
v -1.5 9.2 1.5
v -1.5 9.2 -1.6
v -1.5 9.3 1.5
v -1.5 9.3 -1.6
v -1.2 9.3 1.2
v -1.2 9.3 -1.3
v -1.2 9.4 1.2
v -1.2 9.4 -1.3
v -0.8 9.4 0.8
v -0.8 9.4 -0.9
v -0.8 9.5 0.8
v -0.8 9.5 -0.9
v -0.3 9.5 0.3
v -0.3 9.5 -0.4
v -0.3 9.6 0.3
v -0.3 9.6 -0.4
v 0.4 9.5 0.3
v 0.4 9.5 -0.4
v 0.4 9.6 0.3
v 0.4 9.6 -0.4
v 0.9 9.4 0.8
v 0.9 9.4 -0.9
v 0.9 9.5 0.8
v 0.9 9.5 -0.9
v 1.3 9.3 1.2
v 1.3 9.3 -1.3
v 1.3 9.4 1.2
v 1.3 9.4 -1.3
v 1.6 9.2 1.5
v 1.6 9.2 -1.6
v 1.6 9.3 1.5
v 1.6 9.3 -1.6
v 1.9 9.1 1.8
v 1.9 9.1 -1.9
v 1.9 9.2 1.8
v 1.9 9.2 -1.9
v 2.2 2.4 2.1
v 2.2 2.4 -2.2
v 2.2 9.1 2.1
v 2.2 9.1 -2.2
v 2.5 0 2.4
v 2.5 0 -2.5
v 2.5 2.4 2.4
v 2.5 2.4 -2.5
v -2.4 0 2.4
v -2.4 2.4 2.4
v 2.5 0 2.4
v 2.5 2.4 2.4
v -2.1 2.4 2.1
v -2.1 9.1 2.1
v 2.2 2.4 2.1
v 2.2 9.1 2.1
v -1.8 9.1 1.8
v -1.8 9.2 1.8
v 1.9 9.1 1.8
v 1.9 9.2 1.8
v -1.5 9.2 1.5
v -1.5 9.3 1.5
v 1.6 9.2 1.5
v 1.6 9.3 1.5
v -1.2 9.3 1.2
v -1.2 9.4 1.2
v 1.3 9.3 1.2
v 1.3 9.4 1.2
v -0.8 9.4 0.8
v -0.8 9.5 0.8
v 0.9 9.4 0.8
v 0.9 9.5 0.8
v -0.3 9.5 0.3
v -0.3 9.6 0.3
v 0.4 9.5 0.3
v 0.4 9.6 0.3
v -0.3 9.5 -0.4
v -0.3 9.6 -0.4
v 0.4 9.5 -0.4
v 0.4 9.6 -0.4
v -0.8 9.4 -0.9
v -0.8 9.5 -0.9
v 0.9 9.4 -0.9
v 0.9 9.5 -0.9
v -1.2 9.3 -1.3
v -1.2 9.4 -1.3
v 1.3 9.3 -1.3
v 1.3 9.4 -1.3
v -1.5 9.2 -1.6
v -1.5 9.3 -1.6
v 1.6 9.2 -1.6
v 1.6 9.3 -1.6
v -1.8 9.1 -1.9
v -1.8 9.2 -1.9
v 1.9 9.1 -1.9
v 1.9 9.2 -1.9
v -2.1 2.4 -2.2
v -2.1 9.1 -2.2
v 2.2 2.4 -2.2
v 2.2 9.1 -2.2
v -2.4 0 -2.5
v -2.4 2.4 -2.5
v 2.5 0 -2.5
v 2.5 2.4 -2.5
v -2.4 0 2.4
v 2.5 0 2.4
v -2.4 0 -2.5
v 2.5 0 -2.5
v -2.4 2.4 2.4
v 2.5 2.4 2.4
v -2.1 2.4 2.1
v 2.2 2.4 2.1
v -2.1 2.4 -2.2
v 2.2 2.4 -2.2
v -2.4 2.4 -2.5
v 2.5 2.4 -2.5
v -2.1 9.1 2.1
v 2.2 9.1 2.1
v -1.8 9.1 1.8
v 1.9 9.1 1.8
v -1.8 9.1 -1.9
v 1.9 9.1 -1.9
v -2.1 9.1 -2.2
v 2.2 9.1 -2.2
v -1.8 9.2 1.8
v 1.9 9.2 1.8
v -1.5 9.2 1.5
v 1.6 9.2 1.5
v -1.5 9.2 -1.6
v 1.6 9.2 -1.6
v -1.8 9.2 -1.9
v 1.9 9.2 -1.9
v -1.5 9.3 1.5
v 1.6 9.3 1.5
v -1.2 9.3 1.2
v 1.3 9.3 1.2
v -1.2 9.3 -1.3
v 1.3 9.3 -1.3
v -1.5 9.3 -1.6
v 1.6 9.3 -1.6
v -1.2 9.4 1.2
v 1.3 9.4 1.2
v -0.8 9.4 0.8
v 0.9 9.4 0.8
v -0.8 9.4 -0.9
v 0.9 9.4 -0.9
v -1.2 9.4 -1.3
v 1.3 9.4 -1.3
v -0.8 9.5 0.8
v 0.9 9.5 0.8
v -0.3 9.5 0.3
v 0.4 9.5 0.3
v -0.3 9.5 -0.4
v 0.4 9.5 -0.4
v -0.8 9.5 -0.9
v 0.9 9.5 -0.9
v -0.3 9.6 0.3
v 0.4 9.6 0.3
v -0.3 9.6 -0.4
v 0.4 9.6 -0.4

# faces
f 3/3/1 2/3/1 1/3/1
f 4/3/1 2/3/1 3/3/1
f 7/2/1 6/2/1 5/2/1
f 8/2/1 6/2/1 7/2/1
f 11/2/1 10/2/1 9/2/1
f 12/2/1 10/2/1 11/2/1
f 15/2/1 14/2/1 13/2/1
f 16/2/1 14/2/1 15/2/1
f 19/2/1 18/2/1 17/2/1
f 20/2/1 18/2/1 19/2/1
f 23/2/1 22/2/1 21/2/1
f 24/2/1 22/2/1 23/2/1
f 27/2/1 26/2/1 25/2/1
f 28/2/1 26/2/1 27/2/1
f 29/2/2 30/2/2 31/2/2
f 31/2/2 30/2/2 32/2/2
f 33/2/2 34/2/2 35/2/2
f 35/2/2 34/2/2 36/2/2
f 37/2/2 38/2/2 39/2/2
f 39/2/2 38/2/2 40/2/2
f 41/2/2 42/2/2 43/2/2
f 43/2/2 42/2/2 44/2/2
f 45/2/2 46/2/2 47/2/2
f 47/2/2 46/2/2 48/2/2
f 49/2/2 50/2/2 51/2/2
f 51/2/2 50/2/2 52/2/2
f 53/3/2 54/3/2 55/3/2
f 55/3/2 54/3/2 56/3/2
f 59/3/3 58/3/3 57/3/3
f 60/3/3 58/3/3 59/3/3
f 63/2/3 62/2/3 61/2/3
f 64/2/3 62/2/3 63/2/3
f 67/2/3 66/2/3 65/2/3
f 68/2/3 66/2/3 67/2/3
f 71/2/3 70/2/3 69/2/3
f 72/2/3 70/2/3 71/2/3
f 75/2/3 74/2/3 73/2/3
f 76/2/3 74/2/3 75/2/3
f 79/2/3 78/2/3 77/2/3
f 80/2/3 78/2/3 79/2/3
f 83/2/3 82/2/3 81/2/3
f 84/2/3 82/2/3 83/2/3
f 85/2/4 86/2/4 87/2/4
f 87/2/4 86/2/4 88/2/4
f 89/2/4 90/2/4 91/2/4
f 91/2/4 90/2/4 92/2/4
f 93/2/4 94/2/4 95/2/4
f 95/2/4 94/2/4 96/2/4
f 97/2/4 98/2/4 99/2/4
f 99/2/4 98/2/4 100/2/4
f 101/2/4 102/2/4 103/2/4
f 103/2/4 102/2/4 104/2/4
f 105/2/4 106/2/4 107/2/4
f 107/2/4 106/2/4 108/2/4
f 109/3/4 110/3/4 111/3/4
f 111/3/4 110/3/4 112/3/4
f 115/3/5 114/3/5 113/3/5
f 116/3/5 114/3/5 115/3/5
f 117/3/6 118/3/6 119/3/6
f 119/3/6 118/3/6 120/3/6
f 117/3/6 119/3/6 121/3/6
f 120/3/6 118/3/6 122/3/6
f 117/3/6 121/3/6 123/3/6
f 121/3/6 122/3/6 123/3/6
f 122/3/6 118/3/6 124/3/6
f 123/3/6 122/3/6 124/3/6
f 125/2/6 126/2/6 127/2/6
f 127/2/6 126/2/6 128/2/6
f 125/2/6 127/2/6 129/2/6
f 128/2/6 126/2/6 130/2/6
f 125/2/6 129/2/6 131/2/6
f 129/2/6 130/2/6 131/2/6
f 130/2/6 126/2/6 132/2/6
f 131/2/6 130/2/6 132/2/6
f 133/2/6 134/2/6 135/2/6
f 135/2/6 134/2/6 136/2/6
f 133/2/6 135/2/6 137/2/6
f 136/2/6 134/2/6 138/2/6
f 133/2/6 137/2/6 139/2/6
f 137/2/6 138/2/6 139/2/6
f 138/2/6 134/2/6 140/2/6
f 139/2/6 138/2/6 140/2/6
f 141/2/6 142/2/6 143/2/6
f 143/2/6 142/2/6 144/2/6
f 141/2/6 143/2/6 145/2/6
f 144/2/6 142/2/6 146/2/6
f 141/2/6 145/2/6 147/2/6
f 145/2/6 146/2/6 147/2/6
f 146/2/6 142/2/6 148/2/6
f 147/2/6 146/2/6 148/2/6
f 149/2/6 150/2/6 151/2/6
f 151/2/6 150/2/6 152/2/6
f 149/2/6 151/2/6 153/2/6
f 152/2/6 150/2/6 154/2/6
f 149/2/6 153/2/6 155/2/6
f 153/2/6 154/2/6 155/2/6
f 154/2/6 150/2/6 156/2/6
f 155/2/6 154/2/6 156/2/6
f 157/2/6 158/2/6 159/2/6
f 159/2/6 158/2/6 160/2/6
f 157/2/6 159/2/6 161/2/6
f 160/2/6 158/2/6 162/2/6
f 157/2/6 161/2/6 163/2/6
f 161/2/6 162/2/6 163/2/6
f 162/2/6 158/2/6 164/2/6
f 163/2/6 162/2/6 164/2/6
f 165/2/6 166/2/6 167/2/6
f 167/2/6 166/2/6 168/2/6
