# MagicaVoxel @ Ephtracy

# group
o 

# material
mtllib TWall.mtl
usemtl palette

# normals
vn -1 0 0
vn 1 0 0
vn 0 0 1
vn 0 0 -1
vn 0 -1 0
vn 0 1 0

# texcoords
vt 0.982422 0.5
vt 0.986328 0.5

# verts
v -5 0 2.4
v -5 0 -2.5
v -5 2.4 2.4
v -5 2.4 2.1
v -5 2.4 -2.2
v -5 2.4 -2.5
v -5 9.1 2.1
v -5 9.1 1.8
v -5 9.1 -1.9
v -5 9.1 -2.2
v -5 9.2 1.8
v -5 9.2 1.5
v -5 9.2 -1.6
v -5 9.2 -1.9
v -5 9.3 1.5
v -5 9.3 1.2
v -5 9.3 -1.3
v -5 9.3 -1.6
v -5 9.4 1.2
v -5 9.4 0.8
v -5 9.4 -0.9
v -5 9.4 -1.3
v -5 9.5 0.8
v -5 9.5 0.3
v -5 9.5 -0.4
v -5 9.5 -0.9
v -5 9.6 0.3
v -5 9.6 -0.4
v -2.4 0 5
v -2.4 0 2.4
v -2.4 0 -2.5
v -2.4 0 -5.1
v -2.4 2.4 5
v -2.4 2.4 2.4
v -2.4 2.4 -2.5
v -2.4 2.4 -5.1
v -2.1 2.4 5
v -2.1 2.4 2.1
v -2.1 2.4 -2.2
v -2.1 2.4 -5.1
v -2.1 9.1 5
v -2.1 9.1 2.1
v -2.1 9.1 -2.2
v -2.1 9.1 -5.1
v -1.8 9.1 5
v -1.8 9.1 1.8
v -1.8 9.1 -1.9
v -1.8 9.1 -5.1
v -1.8 9.2 5
v -1.8 9.2 1.8
v -1.8 9.2 -1.9
v -1.8 9.2 -5.1
v -1.5 9.2 5
v -1.5 9.2 1.5
v -1.5 9.2 -1.6
v -1.5 9.2 -5.1
v -1.5 9.3 5
v -1.5 9.3 1.5
v -1.5 9.3 -1.6
v -1.5 9.3 -5.1
v -1.2 9.3 5
v -1.2 9.3 1.2
v -1.2 9.3 -1.3
v -1.2 9.3 -5.1
v -1.2 9.4 5
v -1.2 9.4 1.2
v -1.2 9.4 -1.3
v -1.2 9.4 -5.1
v -0.8 9.4 5
v -0.8 9.4 0.8
v -0.8 9.4 -0.9
v -0.8 9.4 -5.1
v -0.8 9.5 5
v -0.8 9.5 0.8
v -0.8 9.5 -0.9
v -0.8 9.5 -5.1
v -0.3 9.5 5
v -0.3 9.5 0.3
v -0.3 9.5 -0.4
v -0.3 9.5 -5.1
v -0.3 9.6 5
v -0.3 9.6 0.3
v -0.3 9.6 -0.4
v -0.3 9.6 -5.1
v 0.4 9.5 5
v 0.4 9.5 -5.1
v 0.4 9.6 5
v 0.4 9.6 -5.1
v 0.9 9.4 5
v 0.9 9.4 -5.1
v 0.9 9.5 5
v 0.9 9.5 -5.1
v 1.3 9.3 5
v 1.3 9.3 -5.1
v 1.3 9.4 5
v 1.3 9.4 -5.1
v 1.6 9.2 5
v 1.6 9.2 -5.1
v 1.6 9.3 5
v 1.6 9.3 -5.1
v 1.9 9.1 5
v 1.9 9.1 -5.1
v 1.9 9.2 5
v 1.9 9.2 -5.1
v 2.2 2.4 5
v 2.2 2.4 -5.1
v 2.2 9.1 5
v 2.2 9.1 -5.1
v 2.5 0 5
v 2.5 0 -5.1
v 2.5 2.4 5
v 2.5 2.4 -5.1
v -2.4 0 5
v -2.4 2.4 5
v -2.1 2.4 5
v -2.1 9.1 5
v -1.8 9.1 5
v -1.8 9.2 5
v -1.5 9.2 5
v -1.5 9.3 5
v -1.2 9.3 5
v -1.2 9.4 5
v -0.8 9.4 5
v -0.8 9.5 5
v -0.3 9.5 5
v -0.3 9.6 5
v 0.4 9.5 5
v 0.4 9.6 5
v 0.9 9.4 5
v 0.9 9.5 5
v 1.3 9.3 5
v 1.3 9.4 5
v 1.6 9.2 5
v 1.6 9.3 5
v 1.9 9.1 5
v 1.9 9.2 5
v 2.2 2.4 5
v 2.2 9.1 5
v 2.5 0 5
v 2.5 2.4 5
v -5 0 2.4
v -5 2.4 2.4
v -2.4 0 2.4
v -2.4 2.4 2.4
v -5 2.4 2.1
v -5 9.1 2.1
v -2.1 2.4 2.1
v -2.1 9.1 2.1
v -5 9.1 1.8
v -5 9.2 1.8
v -1.8 9.1 1.8
v -1.8 9.2 1.8
v -5 9.2 1.5
v -5 9.3 1.5
v -1.5 9.2 1.5
v -1.5 9.3 1.5
v -5 9.3 1.2
v -5 9.4 1.2
v -1.2 9.3 1.2
v -1.2 9.4 1.2
v -5 9.4 0.8
v -5 9.5 0.8
v -0.8 9.4 0.8
v -0.8 9.5 0.8
v -5 9.5 0.3
v -5 9.6 0.3
v -0.3 9.5 0.3
v -0.3 9.6 0.3
v -5 9.5 -0.4
v -5 9.6 -0.4
v -0.3 9.5 -0.4
v -0.3 9.6 -0.4
v -5 9.4 -0.9
v -5 9.5 -0.9
v -0.8 9.4 -0.9
v -0.8 9.5 -0.9
v -5 9.3 -1.3
v -5 9.4 -1.3
v -1.2 9.3 -1.3
v -1.2 9.4 -1.3
v -5 9.2 -1.6
v -5 9.3 -1.6
v -1.5 9.2 -1.6
v -1.5 9.3 -1.6
v -5 9.1 -1.9
v -5 9.2 -1.9
v -1.8 9.1 -1.9
v -1.8 9.2 -1.9
v -5 2.4 -2.2
v -5 9.1 -2.2
v -2.1 2.4 -2.2
v -2.1 9.1 -2.2
v -5 0 -2.5
v -5 2.4 -2.5
v -2.4 0 -2.5
v -2.4 2.4 -2.5
v -2.4 0 -5.1
v -2.4 2.4 -5.1
v -2.1 2.4 -5.1
v -2.1 9.1 -5.1
v -1.8 9.1 -5.1
v -1.8 9.2 -5.1
v -1.5 9.2 -5.1
v -1.5 9.3 -5.1
v -1.2 9.3 -5.1
v -1.2 9.4 -5.1
v -0.8 9.4 -5.1
v -0.8 9.5 -5.1
v -0.3 9.5 -5.1
v -0.3 9.6 -5.1
v 0.4 9.5 -5.1
v 0.4 9.6 -5.1
v 0.9 9.4 -5.1
v 0.9 9.5 -5.1
v 1.3 9.3 -5.1
v 1.3 9.4 -5.1
v 1.6 9.2 -5.1
v 1.6 9.3 -5.1
v 1.9 9.1 -5.1
v 1.9 9.2 -5.1
v 2.2 2.4 -5.1
v 2.2 9.1 -5.1
v 2.5 0 -5.1
v 2.5 2.4 -5.1
v -2.4 0 5
v 2.5 0 5
v -5 0 2.4
v -2.4 0 2.4
v -5 0 -2.5
v -2.4 0 -2.5
v -2.4 0 -5.1
v 2.5 0 -5.1
v -2.4 2.4 5
v -2.1 2.4 5
v 2.2 2.4 5
v 2.5 2.4 5
v -5 2.4 2.4
v -2.4 2.4 2.4
v -5 2.4 2.1
v -2.1 2.4 2.1
v -5 2.4 -2.2
v -2.1 2.4 -2.2
v -5 2.4 -2.5
v -2.4 2.4 -2.5
v -2.4 2.4 -5.1
v -2.1 2.4 -5.1
v 2.2 2.4 -5.1
v 2.5 2.4 -5.1
v -2.1 9.1 5
v -1.8 9.1 5
v 1.9 9.1 5
v 2.2 9.1 5
v -5 9.1 2.1
v -2.1 9.1 2.1
v -5 9.1 1.8
v -1.8 9.1 1.8
v -5 9.1 -1.9
v -1.8 9.1 -1.9
v -5 9.1 -2.2
v -2.1 9.1 -2.2
v -2.1 9.1 -5.1
v -1.8 9.1 -5.1
v 1.9 9.1 -5.1
v 2.2 9.1 -5.1
v -1.8 9.2 5
v -1.5 9.2 5
v 1.6 9.2 5
v 1.9 9.2 5
v -5 9.2 1.8
v -1.8 9.2 1.8
v -5 9.2 1.5
v -1.5 9.2 1.5
v -5 9.2 -1.6
v -1.5 9.2 -1.6
v -5 9.2 -1.9
v -1.8 9.2 -1.9
v -1.8 9.2 -5.1
v -1.5 9.2 -5.1
v 1.6 9.2 -5.1
v 1.9 9.2 -5.1
v -1.5 9.3 5
v -1.2 9.3 5
v 1.3 9.3 5
v 1.6 9.3 5
v -5 9.3 1.5
v -1.5 9.3 1.5
v -5 9.3 1.2
v -1.2 9.3 1.2
v -5 9.3 -1.3
v -1.2 9.3 -1.3
v -5 9.3 -1.6
v -1.5 9.3 -1.6
v -1.5 9.3 -5.1
v -1.2 9.3 -5.1
v 1.3 9.3 -5.1
v 1.6 9.3 -5.1
v -1.2 9.4 5
v -0.8 9.4 5
v 0.9 9.4 5
v 1.3 9.4 5
v -5 9.4 1.2
v -1.2 9.4 1.2
v -5 9.4 0.8
v -0.8 9.4 0.8
v -5 9.4 -0.9
v -0.8 9.4 -0.9
v -5 9.4 -1.3
v -1.2 9.4 -1.3
v -1.2 9.4 -5.1
v -0.8 9.4 -5.1
v 0.9 9.4 -5.1
v 1.3 9.4 -5.1
v -0.8 9.5 5
v -0.3 9.5 5
v 0.4 9.5 5
v 0.9 9.5 5
v -5 9.5 0.8
v -0.8 9.5 0.8
v -5 9.5 0.3
v -0.3 9.5 0.3
v -5 9.5 -0.4
v -0.3 9.5 -0.4
v -5 9.5 -0.9
v -0.8 9.5 -0.9
v -0.8 9.5 -5.1
v -0.3 9.5 -5.1
v 0.4 9.5 -5.1
v 0.9 9.5 -5.1
v -0.3 9.6 5
v 0.4 9.6 5
v -5 9.6 0.3
v -0.3 9.6 0.3
v -5 9.6 -0.4
v -0.3 9.6 -0.4
v -0.3 9.6 -5.1
v 0.4 9.6 -5.1

# faces
f 3/2/1 2/2/1 1/2/1
f 4/2/1 2/2/1 3/2/1
f 5/2/1 2/2/1 4/2/1
f 6/2/1 2/2/1 5/2/1
f 7/1/1 5/1/1 4/1/1
f 8/1/1 5/1/1 7/1/1
f 9/1/1 5/1/1 8/1/1
f 10/1/1 5/1/1 9/1/1
f 11/1/1 9/1/1 8/1/1
f 12/1/1 9/1/1 11/1/1
f 13/1/1 9/1/1 12/1/1
f 14/1/1 9/1/1 13/1/1
f 15/1/1 13/1/1 12/1/1
f 16/1/1 13/1/1 15/1/1
f 17/1/1 13/1/1 16/1/1
f 18/1/1 13/1/1 17/1/1
f 19/1/1 17/1/1 16/1/1
f 20/1/1 17/1/1 19/1/1
f 21/1/1 17/1/1 20/1/1
f 22/1/1 17/1/1 21/1/1
f 23/1/1 21/1/1 20/1/1
f 24/1/1 21/1/1 23/1/1
f 25/1/1 21/1/1 24/1/1
f 26/1/1 21/1/1 25/1/1
f 27/1/1 25/1/1 24/1/1
f 28/1/1 25/1/1 27/1/1
f 33/2/1 30/2/1 29/2/1
f 34/2/1 30/2/1 33/2/1
f 35/2/1 32/2/1 31/2/1
f 36/2/1 32/2/1 35/2/1
f 41/1/1 38/1/1 37/1/1
f 42/1/1 38/1/1 41/1/1
f 43/1/1 40/1/1 39/1/1
f 44/1/1 40/1/1 43/1/1
f 49/1/1 46/1/1 45/1/1
f 50/1/1 46/1/1 49/1/1
f 51/1/1 48/1/1 47/1/1
f 52/1/1 48/1/1 51/1/1
f 57/1/1 54/1/1 53/1/1
f 58/1/1 54/1/1 57/1/1
f 59/1/1 56/1/1 55/1/1
f 60/1/1 56/1/1 59/1/1
f 65/1/1 62/1/1 61/1/1
f 66/1/1 62/1/1 65/1/1
f 67/1/1 64/1/1 63/1/1
f 68/1/1 64/1/1 67/1/1
f 73/1/1 70/1/1 69/1/1
f 74/1/1 70/1/1 73/1/1
f 75/1/1 72/1/1 71/1/1
f 76/1/1 72/1/1 75/1/1
f 81/1/1 78/1/1 77/1/1
f 82/1/1 78/1/1 81/1/1
f 83/1/1 80/1/1 79/1/1
f 84/1/1 80/1/1 83/1/1
f 85/1/2 86/1/2 87/1/2
f 87/1/2 86/1/2 88/1/2
f 89/1/2 90/1/2 91/1/2
f 91/1/2 90/1/2 92/1/2
f 93/1/2 94/1/2 95/1/2
f 95/1/2 94/1/2 96/1/2
f 97/1/2 98/1/2 99/1/2
f 99/1/2 98/1/2 100/1/2
f 101/1/2 102/1/2 103/1/2
f 103/1/2 102/1/2 104/1/2
f 105/1/2 106/1/2 107/1/2
f 107/1/2 106/1/2 108/1/2
f 109/2/2 110/2/2 111/2/2
f 111/2/2 110/2/2 112/2/2
f 115/2/3 114/2/3 113/2/3
f 117/1/3 116/1/3 115/1/3
f 119/1/3 118/1/3 117/1/3
f 121/1/3 120/1/3 119/1/3
f 123/1/3 122/1/3 121/1/3
f 125/1/3 124/1/3 123/1/3
f 127/1/3 125/1/3 123/1/3
f 127/1/3 126/1/3 125/1/3
f 128/1/3 126/1/3 127/1/3
f 129/1/3 123/1/3 121/1/3
f 129/1/3 127/1/3 123/1/3
f 130/1/3 127/1/3 129/1/3
f 131/1/3 121/1/3 119/1/3
f 131/1/3 129/1/3 121/1/3
f 132/1/3 129/1/3 131/1/3
f 133/1/3 119/1/3 117/1/3
f 133/1/3 131/1/3 119/1/3
f 134/1/3 131/1/3 133/1/3
f 135/1/3 117/1/3 115/1/3
f 135/1/3 133/1/3 117/1/3
f 136/1/3 133/1/3 135/1/3
f 137/2/3 115/2/3 113/2/3
f 137/1/3 135/1/3 115/1/3
f 138/1/3 135/1/3 137/1/3
f 139/2/3 137/2/3 113/2/3
f 140/2/3 137/2/3 139/2/3
f 143/2/3 142/2/3 141/2/3
f 144/2/3 142/2/3 143/2/3
f 147/1/3 146/1/3 145/1/3
f 148/1/3 146/1/3 147/1/3
f 151/1/3 150/1/3 149/1/3
f 152/1/3 150/1/3 151/1/3
f 155/1/3 154/1/3 153/1/3
f 156/1/3 154/1/3 155/1/3
f 159/1/3 158/1/3 157/1/3
f 160/1/3 158/1/3 159/1/3
f 163/1/3 162/1/3 161/1/3
f 164/1/3 162/1/3 163/1/3
f 167/1/3 166/1/3 165/1/3
f 168/1/3 166/1/3 167/1/3
f 169/1/4 170/1/4 171/1/4
f 171/1/4 170/1/4 172/1/4
f 173/1/4 174/1/4 175/1/4
f 175/1/4 174/1/4 176/1/4
f 177/1/4 178/1/4 179/1/4
f 179/1/4 178/1/4 180/1/4
f 181/1/4 182/1/4 183/1/4
f 183/1/4 182/1/4 184/1/4
f 185/1/4 186/1/4 187/1/4
f 187/1/4 186/1/4 188/1/4
f 189/1/4 190/1/4 191/1/4
f 191/1/4 190/1/4 192/1/4
f 193/2/4 194/2/4 195/2/4
f 195/2/4 194/2/4 196/2/4
f 197/2/4 198/2/4 199/2/4
f 199/1/4 200/1/4 201/1/4
f 201/1/4 202/1/4 203/1/4
f 203/1/4 204/1/4 205/1/4
f 205/1/4 206/1/4 207/1/4
f 207/1/4 208/1/4 209/1/4
f 207/1/4 209/1/4 211/1/4
f 209/1/4 210/1/4 211/1/4
f 211/1/4 210/1/4 212/1/4
f 205/1/4 207/1/4 213/1/4
f 207/1/4 211/1/4 213/1/4
f 213/1/4 211/1/4 214/1/4
f 203/1/4 205/1/4 215/1/4
f 205/1/4 213/1/4 215/1/4
f 215/1/4 213/1/4 216/1/4
f 201/1/4 203/1/4 217/1/4
f 203/1/4 215/1/4 217/1/4
f 217/1/4 215/1/4 218/1/4
f 199/1/4 201/1/4 219/1/4
f 201/1/4 217/1/4 219/1/4
f 219/1/4 217/1/4 220/1/4
f 197/2/4 199/2/4 221/2/4
f 199/1/4 219/1/4 221/1/4
f 221/1/4 219/1/4 222/1/4
f 197/2/4 221/2/4 223/2/4
f 223/2/4 221/2/4 224/2/4
f 228/2/5 226/2/5 225/2/5
f 229/2/5 228/2/5 227/2/5
f 230/2/5 226/2/5 228/2/5
f 230/2/5 228/2/5 229/2/5
f 231/2/5 226/2/5 230/2/5
f 232/2/5 226/2/5 231/2/5
f 233/2/6 234/2/6 238/2/6
f 237/2/6 238/2/6 239/2/6
f 238/2/6 234/2/6 240/2/6
f 239/2/6 238/2/6 240/2/6
f 241/2/6 242/2/6 243/2/6
f 243/2/6 242/2/6 244/2/6
f 244/2/6 242/2/6 245/2/6
f 245/2/6 242/2/6 246/2/6
f 235/2/6 236/2/6 247/2/6
f 247/2/6 236/2/6 248/2/6
f 249/1/6 250/1/6 254/1/6
f 253/1/6 254/1/6 255/1/6
f 254/1/6 250/1/6 256/1/6
f 255/1/6 254/1/6 256/1/6
f 257/1/6 258/1/6 259/1/6
f 259/1/6 258/1/6 260/1/6
f 260/1/6 258/1/6 261/1/6
f 261/1/6 258/1/6 262/1/6
f 251/1/6 252/1/6 263/1/6
f 263/1/6 252/1/6 264/1/6
f 265/1/6 266/1/6 270/1/6
f 269/1/6 270/1/6 271/1/6
f 270/1/6 266/1/6 272/1/6
f 271/1/6 270/1/6 272/1/6
f 273/1/6 274/1/6 275/1/6
f 275/1/6 274/1/6 276/1/6
f 276/1/6 274/1/6 277/1/6
f 277/1/6 274/1/6 278/1/6
f 267/1/6 268/1/6 279/1/6
f 279/1/6 268/1/6 280/1/6
f 281/1/6 282/1/6 286/1/6
f 285/1/6 286/1/6 287/1/6
f 286/1/6 282/1/6 288/1/6
f 287/1/6 286/1/6 288/1/6
f 289/1/6 290/1/6 291/1/6
f 291/1/6 290/1/6 292/1/6
f 292/1/6 290/1/6 293/1/6
f 293/1/6 290/1/6 294/1/6
f 283/1/6 284/1/6 295/1/6
f 295/1/6 284/1/6 296/1/6
f 297/1/6 298/1/6 302/1/6
f 301/1/6 302/1/6 303/1/6
f 302/1/6 298/1/6 304/1/6
f 303/1/6 302/1/6 304/1/6
f 305/1/6 306/1/6 307/1/6
f 307/1/6 306/1/6 308/1/6
f 308/1/6 306/1/6 309/1/6
f 309/1/6 306/1/6 310/1/6
f 299/1/6 300/1/6 311/1/6
f 311/1/6 300/1/6 312/1/6
f 313/1/6 314/1/6 318/1/6
f 317/1/6 318/1/6 319/1/6
f 318/1/6 314/1/6 320/1/6
f 319/1/6 318/1/6 320/1/6
f 321/1/6 322/1/6 323/1/6
f 323/1/6 322/1/6 324/1/6
f 324/1/6 322/1/6 325/1/6
f 325/1/6 322/1/6 326/1/6
f 315/1/6 316/1/6 327/1/6
f 327/1/6 316/1/6 328/1/6
f 329/1/6 330/1/6 332/1/6
f 331/1/6 332/1/6 333/1/6
f 332/1/6 330/1/6 334/1/6
f 333/1/6 332/1/6 334/1/6
f 334/1/6 330/1/6 335/1/6
f 335/1/6 330/1/6 336/1/6
